RedHatDisplay-Italic.ufo
<glyph name="dollar" format="2">
  <advance width="555"/>
  <unicode hex="0024"/>
  <outline>
    <contour>
      <point x="180" y="-75" type="line"/>
      <point x="229" y="-75" type="line"/>
      <point x="249" y="18" type="line"/>
      <point x="264" y="18" type="line" smooth="yes"/>
      <point x="416" y="18"/>
      <point x="517" y="99"/>
      <point x="517" y="221" type="curve" smooth="yes"/>
      <point x="517" y="300"/>
      <point x="470" y="345"/>
      <point x="347" y="379" type="curve" smooth="yes"/>
      <point x="327" y="385" type="line"/>
      <point x="376" y="617" type="line"/>
      <point x="431" y="605"/>
      <point x="485" y="577"/>
      <point x="533" y="532" type="curve"/>
      <point x="581" y="583" type="line"/>
      <point x="526" y="633"/>
      <point x="459" y="666"/>
      <point x="389" y="678" type="curve"/>
      <point x="406" y="759" type="line"/>
      <point x="357" y="759" type="line"/>
      <point x="341" y="684" type="line"/>
      <point x="325" y="684" type="line" smooth="yes"/>
      <point x="180" y="684"/>
      <point x="86" y="609"/>
      <point x="86" y="493" type="curve" smooth="yes"/>
      <point x="86" y="415"/>
      <point x="133" y="366"/>
      <point x="230" y="338" type="curve" smooth="yes"/>
      <point x="266" y="328" type="line"/>
      <point x="214" y="85" type="line"/>
      <point x="150" y="98"/>
      <point x="94" y="136"/>
      <point x="50" y="195" type="curve"/>
      <point x="-2" y="150" type="line"/>
      <point x="51" y="81"/>
      <point x="120" y="38"/>
      <point x="201" y="24" type="curve"/>
    </contour>
    <contour>
      <point x="258" y="400" type="line" smooth="yes"/>
      <point x="184" y="421"/>
      <point x="154" y="451"/>
      <point x="154" y="502" type="curve" smooth="yes"/>
      <point x="154" y="575"/>
      <point x="220" y="623"/>
      <point x="318" y="623" type="curve" smooth="yes"/>
      <point x="328" y="623" type="line"/>
      <point x="279" y="394" type="line"/>
    </contour>
    <contour>
      <point x="322" y="316" type="line" smooth="yes"/>
      <point x="417" y="288"/>
      <point x="448" y="262"/>
      <point x="448" y="212" type="curve" smooth="yes"/>
      <point x="448" y="134"/>
      <point x="373" y="79"/>
      <point x="267" y="79" type="curve" smooth="yes"/>
      <point x="262" y="79" type="line"/>
      <point x="313" y="319" type="line"/>
    </contour>
  </outline>
</glyph>
<glyph name="ampersand" format="2">
  <advance width="640"/>
  <unicode hex="0026"/>
  <outline>
    <contour>
      <point x="588" y="39" type="line"/>
      <point x="559" y="64"/>
      <point x="529" y="93"/>
      <point x="499" y="124" type="curve"/>
      <point x="551" y="181"/>
      <point x="594" y="251"/>
      <point x="629" y="335" type="curve"/>
      <point x="565" y="353" type="line"/>
      <point x="537" y="282"/>
      <point x="500" y="220"/>
      <point x="457" y="170" type="curve"/>
      <point x="403" y="233"/>
      <point x="350" y="303"/>
      <point x="303" y="376" type="curve"/>
      <point x="359" y="404" type="line" smooth="yes"/>
      <point x="462" y="455"/>
      <point x="505" y="509"/>
      <point x="505" y="582" type="curve" smooth="yes"/>
      <point x="505" y="656"/>
      <point x="445" y="708"/>
      <point x="359" y="708" type="curve"/>
      <point x="255" y="708"/>
      <point x="177" y="630"/>
      <point x="177" y="526" type="curve" smooth="yes"/>
      <point x="177" y="484"/>
      <point x="187" y="445"/>
      <point x="213" y="398" type="curve"/>
      <point x="176" y="380" type="line" smooth="yes"/>
      <point x="62" y="323"/>
      <point x="13" y="261"/>
      <point x="13" y="171" type="curve" smooth="yes"/>
      <point x="13" y="63"/>
      <point x="102" y="-9"/>
      <point x="234" y="-9" type="curve" smooth="yes"/>
      <point x="313" y="-9"/>
      <point x="387" y="19"/>
      <point x="450" y="73" type="curve"/>
      <point x="480" y="42"/>
      <point x="510" y="13"/>
      <point x="539" y="-11" type="curve"/>
    </contour>
    <contour>
      <point x="245" y="531" type="curve" smooth="yes"/>
      <point x="245" y="600"/>
      <point x="291" y="650"/>
      <point x="354" y="650" type="curve"/>
      <point x="404" y="650"/>
      <point x="435" y="619"/>
      <point x="435" y="573" type="curve" smooth="yes"/>
      <point x="435" y="525"/>
      <point x="405" y="489"/>
      <point x="338" y="456" type="curve" smooth="yes"/>
      <point x="277" y="426" type="line"/>
      <point x="254" y="468"/>
      <point x="245" y="498"/>
    </contour>
    <contour>
      <point x="84" y="184" type="curve" smooth="yes"/>
      <point x="84" y="243"/>
      <point x="123" y="291"/>
      <point x="207" y="331" type="curve" smooth="yes"/>
      <point x="240" y="347" type="line"/>
      <point x="291" y="266"/>
      <point x="349" y="187"/>
      <point x="409" y="118" type="curve"/>
      <point x="359" y="76"/>
      <point x="301" y="53"/>
      <point x="241" y="53" type="curve" smooth="yes"/>
      <point x="146" y="53"/>
      <point x="84" y="105"/>
    </contour>
  </outline>
</glyph>
<glyph name="quotesingle" format="2">
  <advance width="187"/>
  <unicode hex="0027"/>
  <outline>
    <contour>
      <point x="117" y="497" type="line"/>
      <point x="169" y="497" type="line"/>
      <point x="224" y="701" type="line"/>
      <point x="150" y="701" type="line"/>
    </contour>
  </outline>
</glyph>
<glyph name="period" format="2">
  <advance width="193"/>
  <unicode hex="002E"/>
  <outline>
    <contour>
      <point x="59" y="96" type="curve"/>
      <point x="29" y="96"/>
      <point x="2" y="69"/>
      <point x="2" y="39" type="curve" smooth="yes"/>
      <point x="2" y="14"/>
      <point x="21" y="-6"/>
      <point x="47" y="-6" type="curve"/>
      <point x="76" y="-6"/>
      <point x="103" y="21"/>
      <point x="103" y="50" type="curve" smooth="yes"/>
      <point x="103" y="76"/>
      <point x="84" y="96"/>
    </contour>
  </outline>
</glyph>
<glyph name="two" format="2">
  <advance width="531"/>
  <unicode hex="0032"/>
  <outline>
    <contour>
      <point x="-17" y="0" type="line"/>
      <point x="444" y="0" type="line"/>
      <point x="457" y="64" type="line"/>
      <point x="101" y="64" type="line"/>
      <point x="396" y="301" type="line" smooth="yes"/>
      <point x="505" y="388"/>
      <point x="544" y="450"/>
      <point x="544" y="535" type="curve" smooth="yes"/>
      <point x="544" y="637"/>
      <point x="461" y="708"/>
      <point x="342" y="708" type="curve" smooth="yes"/>
      <point x="265" y="708"/>
      <point x="188" y="680"/>
      <point x="102" y="620" type="curve"/>
      <point x="135" y="568" type="line"/>
      <point x="213" y="623"/>
      <point x="268" y="645"/>
      <point x="329" y="645" type="curve" smooth="yes"/>
      <point x="413" y="645"/>
      <point x="471" y="596"/>
      <point x="471" y="526" type="curve" smooth="yes"/>
      <point x="471" y="465"/>
      <point x="437" y="412"/>
      <point x="354" y="345" type="curve" smooth="yes"/>
      <point x="-6" y="54" type="line"/>
    </contour>
  </outline>
</glyph>
<glyph name="six" format="2">
  <advance width="604"/>
  <unicode hex="0036"/>
  <outline>
    <contour>
      <point x="296" y="-8" type="curve" smooth="yes"/>
      <point x="439" y="-8"/>
      <point x="559" y="106"/>
      <point x="559" y="240" type="curve"/>
      <point x="559" y="354"/>
      <point x="470" y="437"/>
      <point x="345" y="437" type="curve" smooth="yes"/>
      <point x="274" y="437"/>
      <point x="198" y="406"/>
      <point x="139" y="355" type="curve"/>
      <point x="173" y="520"/>
      <point x="290" y="640"/>
      <point x="431" y="640" type="curve" smooth="yes"/>
      <point x="478" y="640"/>
      <point x="529" y="623"/>
      <point x="570" y="593" type="curve"/>
      <point x="618" y="648" type="line"/>
      <point x="567" y="685"/>
      <point x="504" y="706"/>
      <point x="440" y="706" type="curve" smooth="yes"/>
      <point x="230" y="706"/>
      <point x="57" y="503"/>
      <point x="57" y="259" type="curve"/>
      <point x="57" y="98"/>
      <point x="152" y="-8"/>
    </contour>
    <contour>
      <point x="129" y="254" type="curve" smooth="yes"/>
      <point x="129" y="266"/>
      <point x="129" y="279"/>
      <point x="130" y="291" type="curve"/>
      <point x="189" y="346"/>
      <point x="259" y="377"/>
      <point x="327" y="377" type="curve" smooth="yes"/>
      <point x="420" y="377"/>
      <point x="487" y="316"/>
      <point x="487" y="231" type="curve"/>
      <point x="487" y="136"/>
      <point x="401" y="56"/>
      <point x="300" y="56" type="curve" smooth="yes"/>
      <point x="195" y="56"/>
      <point x="129" y="133"/>
    </contour>
  </outline>
</glyph>
<glyph name="eight" format="2">
  <advance width="603"/>
  <unicode hex="0038"/>
  <outline>
    <contour>
      <point x="274" y="-9" type="curve" smooth="yes"/>
      <point x="427" y="-9"/>
      <point x="548" y="86"/>
      <point x="548" y="206" type="curve" smooth="yes"/>
      <point x="548" y="273"/>
      <point x="505" y="331"/>
      <point x="434" y="361" type="curve"/>
      <point x="525" y="387"/>
      <point x="589" y="460"/>
      <point x="589" y="541" type="curve" smooth="yes"/>
      <point x="589" y="639"/>
      <point x="499" y="710"/>
      <point x="375" y="710" type="curve" smooth="yes"/>
      <point x="239" y="710"/>
      <point x="128" y="622"/>
      <point x="128" y="513" type="curve" smooth="yes"/>
      <point x="128" y="455"/>
      <point x="162" y="405"/>
      <point x="217" y="376" type="curve"/>
      <point x="109" y="352"/>
      <point x="30" y="269"/>
      <point x="30" y="173" type="curve" smooth="yes"/>
      <point x="30" y="67"/>
      <point x="131" y="-9"/>
    </contour>
    <contour>
      <point x="347" y="399" type="curve" smooth="yes"/>
      <point x="262" y="399"/>
      <point x="199" y="448"/>
      <point x="199" y="515" type="curve" smooth="yes"/>
      <point x="199" y="590"/>
      <point x="276" y="652"/>
      <point x="370" y="652" type="curve" smooth="yes"/>
      <point x="454" y="652"/>
      <point x="518" y="602"/>
      <point x="518" y="536" type="curve" smooth="yes"/>
      <point x="518" y="461"/>
      <point x="441" y="399"/>
    </contour>
    <contour>
      <point x="278" y="51" type="curve" smooth="yes"/>
      <point x="178" y="51"/>
      <point x="103" y="107"/>
      <point x="103" y="184" type="curve" smooth="yes"/>
      <point x="103" y="268"/>
      <point x="192" y="338"/>
      <point x="300" y="338" type="curve" smooth="yes"/>
      <point x="401" y="338"/>
      <point x="477" y="280"/>
      <point x="477" y="206" type="curve" smooth="yes"/>
      <point x="477" y="121"/>
      <point x="386" y="51"/>
    </contour>
  </outline>
</glyph>
<glyph name="less" format="2">
  <advance width="509"/>
  <unicode hex="003C"/>
  <outline>
    <contour>
      <point x="349" y="103" type="line"/>
      <point x="395" y="148" type="line"/>
      <point x="181" y="345" type="line"/>
      <point x="483" y="545" type="line"/>
      <point x="453" y="594" type="line"/>
      <point x="90" y="349" type="line"/>
    </contour>
  </outline>
</glyph>
<glyph name="asciicircum" format="2">
  <advance width="526"/>
  <unicode hex="005E"/>
  <outline>
    <contour>
      <point x="68" y="350" type="line"/>
      <point x="137" y="350" type="line"/>
      <point x="345" y="634" type="line"/>
      <point x="433" y="350" type="line"/>
      <point x="498" y="350" type="line"/>
      <point x="389" y="700" type="line"/>
      <point x="326" y="700" type="line"/>
    </contour>
  </outline>
</glyph>
<glyph name="y" format="2">
  <advance width="501"/>
  <unicode hex="0079"/>
  <anchor x="292" y="501" name="top"/>
  <outline>
    <contour>
      <point x="110" y="-67" type="line" smooth="yes"/>
      <point x="79" y="-117"/>
      <point x="43" y="-140"/>
      <point x="0" y="-140" type="curve" smooth="yes"/>
      <point x="-16" y="-140"/>
      <point x="-32" y="-138"/>
      <point x="-43" y="-134" type="curve"/>
      <point x="-57" y="-200" type="line"/>
      <point x="-40" y="-205"/>
      <point x="-21" y="-208"/>
      <point x="-2" y="-208" type="curve" smooth="yes"/>
      <point x="72" y="-208"/>
      <point x="126" y="-171"/>
      <point x="182" y="-82" type="curve" smooth="yes"/>
      <point x="549" y="501" type="line"/>
      <point x="468" y="501" type="line"/>
      <point x="210" y="86" type="line"/>
      <point x="135" y="501" type="line"/>
      <point x="58" y="501" type="line"/>
      <point x="154" y="1" type="line"/>
    </contour>
  </outline>
</glyph>
<glyph name="asciitilde" format="2">
  <advance width="566"/>
  <unicode hex="007E"/>
  <outline>
    <contour>
      <point x="301" y="421" type="line" smooth="yes"/>
      <point x="256" y="448"/>
      <point x="231" y="457"/>
      <point x="202" y="457" type="curve" smooth="yes"/>
      <point x="142" y="457"/>
      <point x="91" y="410"/>
      <point x="63" y="325" type="curve"/>
      <point x="116" y="312" type="line"/>
      <point x="136" y="368"/>
      <point x="164" y="395"/>
      <point x="200" y="395" type="curve" smooth="yes"/>
      <point x="218" y="395"/>
      <point x="229" y="391"/>
      <point x="262" y="372" type="curve" smooth="yes"/>
      <point x="331" y="330" type="line" smooth="yes"/>
      <point x="378" y="302"/>
      <point x="401" y="293"/>
      <point x="430" y="293" type="curve" smooth="yes"/>
      <point x="491" y="293"/>
      <point x="541" y="341"/>
      <point x="570" y="426" type="curve"/>
      <point x="516" y="439" type="line"/>
      <point x="497" y="383"/>
      <point x="469" y="355"/>
      <point x="431" y="355" type="curve" smooth="yes"/>
      <point x="414" y="355"/>
      <point x="401" y="360"/>
      <point x="370" y="379" type="curve" smooth="yes"/>
    </contour>
  </outline>
</glyph>
<glyph name="cent" format="2">
  <advance width="505"/>
  <unicode hex="00A2"/>
  <outline>
    <contour>
      <point x="180" y="-110" type="line"/>
      <point x="231" y="-110" type="line"/>
      <point x="252" y="-9" type="line"/>
      <point x="260" y="-9" type="line" smooth="yes"/>
      <point x="325" y="-9"/>
      <point x="388" y="13"/>
      <point x="446" y="58" type="curve"/>
      <point x="411" y="110" type="line"/>
      <point x="364" y="75"/>
      <point x="317" y="56"/>
      <point x="269" y="56" type="curve" smooth="yes"/>
      <point x="266" y="56" type="line"/>
      <point x="347" y="438" type="line"/>
      <point x="388" y="428"/>
      <point x="424" y="404"/>
      <point x="452" y="365" type="curve"/>
      <point x="505" y="414" type="line"/>
      <point x="473" y="459"/>
      <point x="419" y="492"/>
      <point x="361" y="504" type="curve"/>
      <point x="385" y="617" type="line"/>
      <point x="335" y="617" type="line"/>
      <point x="312" y="509" type="line"/>
      <point x="163" y="509"/>
      <point x="36" y="377"/>
      <point x="36" y="219" type="curve" smooth="yes"/>
      <point x="36" y="107"/>
      <point x="104" y="21"/>
      <point x="203" y="-2" type="curve"/>
    </contour>
    <contour>
      <point x="108" y="222" type="curve" smooth="yes"/>
      <point x="108" y="337"/>
      <point x="195" y="435"/>
      <point x="298" y="442" type="curve"/>
      <point x="217" y="64" type="line"/>
      <point x="153" y="86"/>
      <point x="108" y="148"/>
    </contour>
  </outline>
</glyph>
<glyph name="yen" format="2">
  <advance width="628"/>
  <unicode hex="00A5"/>
  <outline>
    <contour>
      <point x="221" y="0" type="line"/>
      <point x="297" y="0" type="line"/>
      <point x="331" y="159" type="line"/>
      <point x="514" y="159" type="line"/>
      <point x="524" y="210" type="line"/>
      <point x="342" y="210" type="line"/>
      <point x="357" y="282" type="line"/>
      <point x="361" y="287" type="line"/>
      <point x="541" y="287" type="line"/>
      <point x="552" y="339" type="line"/>
      <point x="406" y="339" type="line"/>
      <point x="719" y="700" type="line"/>
      <point x="628" y="700" type="line"/>
      <point x="331" y="354" type="line"/>
      <point x="178" y="700" type="line"/>
      <point x="98" y="700" type="line"/>
      <point x="258" y="339" type="line"/>
      <point x="109" y="339" type="line"/>
      <point x="99" y="287" type="line"/>
      <point x="281" y="287" type="line"/>
      <point x="281" y="286" type="line"/>
      <point x="265" y="210" type="line"/>
      <point x="82" y="210" type="line"/>
      <point x="71" y="159" type="line"/>
      <point x="254" y="159" type="line"/>
    </contour>
  </outline>
</glyph>
<glyph name="uni00A6" format="2">
  <advance width="274"/>
  <unicode hex="00A6"/>
  <guideline x="136.50147073249548" y="247" angle="102.0" identifier="vqo1QWua4Z"/>
  <guideline x="136.50147073249548" y="247" angle="0" identifier="1av9a3dMxG"/>
  <outline>
    <contour>
      <point x="179.00373319929633" y="287.0" type="line"/>
      <point x="266.78959316901546" y="700.0" type="line"/>
      <point x="198.7895931690155" y="700.0" type="line"/>
      <point x="111.00373319929633" y="287.0" type="line"/>
    </contour>
    <contour>
      <point x="6.213348295975443" y="-206.0" type="line"/>
      <point x="74.21334829597544" y="-206.0" type="line"/>
      <point x="161.99920826569456" y="207.0" type="line"/>
      <point x="93.99920826569456" y="207.0" type="line"/>
    </contour>
  </outline>
</glyph>
<glyph name="uni00AC" format="2">
  <advance width="547"/>
  <unicode hex="00AC"/>
  <outline>
    <contour>
      <point x="62.74276036438695" y="314.0" type="line"/>
      <point x="48.71402729416549" y="248.0" type="line"/>
      <point x="431.7140272941655" y="248.0" type="line"/>
      <point x="379.0" y="0.0" type="line"/>
      <point x="445.0" y="0.0" type="line"/>
      <point x="511.742760364387" y="314.0" type="line"/>
    </contour>
  </outline>
</glyph>
<glyph name="registered" format="2">
  <advance width="480"/>
  <unicode hex="00AE"/>
  <outline>
    <contour>
      <point x="275" y="311" type="curve" smooth="yes"/>
      <point x="393" y="311"/>
      <point x="494" y="416"/>
      <point x="494" y="537" type="curve" smooth="yes"/>
      <point x="494" y="639"/>
      <point x="420" y="713"/>
      <point x="317" y="713" type="curve" smooth="yes"/>
      <point x="199" y="713"/>
      <point x="99" y="609"/>
      <point x="99" y="487" type="curve" smooth="yes"/>
      <point x="99" y="385"/>
      <point x="173" y="311"/>
    </contour>
    <contour>
      <point x="279" y="345" type="curve" smooth="yes"/>
      <point x="194" y="345"/>
      <point x="136" y="403"/>
      <point x="136" y="489" type="curve" smooth="yes"/>
      <point x="136" y="593"/>
      <point x="216" y="679"/>
      <point x="314" y="679" type="curve" smooth="yes"/>
      <point x="399" y="679"/>
      <point x="457" y="621"/>
      <point x="457" y="536" type="curve" smooth="yes"/>
      <point x="457" y="431"/>
      <point x="377" y="345"/>
    </contour>
    <contour>
      <point x="209" y="419" type="line"/>
      <point x="243" y="419" type="line"/>
      <point x="258" y="490" type="line"/>
      <point x="293" y="490" type="line"/>
      <point x="320" y="419" type="line"/>
      <point x="356" y="419" type="line"/>
      <point x="329" y="495" type="line"/>
      <point x="355" y="504"/>
      <point x="373" y="528"/>
      <point x="373" y="554" type="curve" smooth="yes"/>
      <point x="373" y="588"/>
      <point x="353" y="607"/>
      <point x="317" y="607" type="curve" smooth="yes"/>
      <point x="249" y="607" type="line"/>
    </contour>
    <contour>
      <point x="310" y="579" type="line" smooth="yes"/>
      <point x="330" y="579"/>
      <point x="339" y="570"/>
      <point x="339" y="551" type="curve" smooth="yes"/>
      <point x="339" y="531"/>
      <point x="325" y="516"/>
      <point x="303" y="516" type="curve" smooth="yes"/>
      <point x="263" y="516" type="line"/>
      <point x="277" y="579" type="line"/>
    </contour>
  </outline>
</glyph>
<glyph name="acute" format="2">
  <advance width="509"/>
  <unicode hex="00B4"/>
  <anchor x="270" y="501" name="_top"/>
  <outline>
    <contour>
      <point x="355" y="716" type="line"/>
      <point x="238" y="600" type="line"/>
      <point x="305" y="600" type="line"/>
      <point x="450" y="716" type="line"/>
    </contour>
  </outline>
</glyph>
<glyph name="uni00B5" format="2">
  <advance width="549"/>
  <unicode hex="00B5"/>
  <outline>
    <contour>
      <point x="187.4908373966811" y="501.0" type="line"/>
      <point x="114.49083739668109" y="501.0" type="line"/>
      <point x="-35.57409514235454" y="-205.0" type="line"/>
      <point x="37.42590485764546" y="-205.0" type="line"/>
      <point x="86.73902716509059" y="27.0" type="line"/>
      <point x="113.63766968501005" y="3.0"/>
      <point x="152.87443438329979" y="-10.0"/>
      <point x="199.87443438329979" y="-10.0" type="curve"/>
      <point x="264.8744343832998" y="-10.0"/>
      <point x="322.76323530171027" y="13.0"/>
      <point x="371.3282805768613" y="58.0" type="curve"/>
      <point x="359.0" y="0.0" type="line"/>
      <point x="433.0" y="0.0" type="line"/>
      <point x="539.4908373966811" y="501.0" type="line"/>
      <point x="465.49083739668106" y="501.0" type="line"/>
      <point x="387.27002270211295" y="133.0" type="line"/>
      <point x="346.6421946186118" y="83.0"/>
      <point x="292.69061089185124" y="55.0"/>
      <point x="232.69061089185124" y="55.0" type="curve" smooth="yes"/>
      <point x="146.6906108918512" y="55.0"/>
      <point x="104.38122178370244" y="110.0"/>
      <point x="123.2987557723344" y="199.0" type="curve"/>
    </contour>
  </outline>
</glyph>
<glyph name="cedilla" format="2">
  <advance width="508"/>
  <unicode hex="00B8"/>
  <anchor x="232" y="0" name="_bottom"/>
  <outline>
    <contour>
      <point x="304" y="-129" type="curve" smooth="yes"/>
      <point x="304" y="-88"/>
      <point x="275" y="-61"/>
      <point x="226" y="-56" type="curve"/>
      <point x="254" y="0" type="line"/>
      <point x="211" y="0" type="line"/>
      <point x="166" y="-91" type="line"/>
      <point x="195" y="-91" type="line" smooth="yes"/>
      <point x="233" y="-91"/>
      <point x="256" y="-107"/>
      <point x="256" y="-134" type="curve" smooth="yes"/>
      <point x="256" y="-165"/>
      <point x="227" y="-186"/>
      <point x="186" y="-186" type="curve" smooth="yes"/>
      <point x="155" y="-186"/>
      <point x="130" y="-175"/>
      <point x="108" y="-151" type="curve"/>
      <point x="75" y="-181" type="line"/>
      <point x="99" y="-211"/>
      <point x="139" y="-228"/>
      <point x="185" y="-228" type="curve" smooth="yes"/>
      <point x="253" y="-228"/>
      <point x="304" y="-186"/>
    </contour>
  </outline>
</glyph>
<glyph name="multiply" format="2">
  <advance width="534"/>
  <unicode hex="00D7"/>
  <outline>
    <contour>
      <point x="98" y="161" type="line"/>
      <point x="283" y="318" type="line"/>
      <point x="401" y="162" type="line"/>
      <point x="447" y="199" type="line"/>
      <point x="328" y="356" type="line"/>
      <point x="514" y="514" type="line"/>
      <point x="481" y="556" type="line"/>
      <point x="296" y="399" type="line"/>
      <point x="178" y="556" type="line"/>
      <point x="132" y="519" type="line"/>
      <point x="251" y="361" type="line"/>
      <point x="65" y="203" type="line"/>
    </contour>
  </outline>
</glyph>
<glyph name="germandbls" format="2">
  <advance width="609"/>
  <unicode hex="00DF"/>
  <outline>
    <contour>
      <point x="351" y="352" type="curve" smooth="yes"/>
      <point x="351" y="442"/>
      <point x="591" y="412"/>
      <point x="591" y="585" type="curve" smooth="yes"/>
      <point x="591" y="675"/>
      <point x="505" y="738"/>
      <point x="384" y="738" type="curve" smooth="yes"/>
      <point x="244" y="738"/>
      <point x="148" y="657"/>
      <point x="118" y="509" type="curve" smooth="yes"/>
      <point x="10" y="0" type="line"/>
      <point x="80" y="0" type="line"/>
      <point x="188" y="504" type="line" smooth="yes"/>
      <point x="213" y="617"/>
      <point x="279" y="676"/>
      <point x="383" y="676" type="curve" smooth="yes"/>
      <point x="460" y="676"/>
      <point x="520" y="632"/>
      <point x="520" y="576" type="curve" smooth="yes"/>
      <point x="520" y="451"/>
      <point x="281" y="484"/>
      <point x="281" y="342" type="curve" smooth="yes"/>
      <point x="281" y="299"/>
      <point x="305" y="269"/>
      <point x="361" y="245" type="curve" smooth="yes"/>
      <point x="432" y="213" type="line" smooth="yes"/>
      <point x="483" y="192"/>
      <point x="504" y="169"/>
      <point x="504" y="136" type="curve" smooth="yes"/>
      <point x="504" y="82"/>
      <point x="462" y="45"/>
      <point x="397" y="45" type="curve" smooth="yes"/>
      <point x="336" y="45"/>
      <point x="287" y="72"/>
      <point x="248" y="129" type="curve"/>
      <point x="197" y="90" type="line"/>
      <point x="245" y="23"/>
      <point x="313" y="-12"/>
      <point x="396" y="-12" type="curve" smooth="yes"/>
      <point x="496" y="-12"/>
      <point x="571" y="54"/>
      <point x="571" y="142" type="curve" smooth="yes"/>
      <point x="571" y="196"/>
      <point x="543" y="231"/>
      <point x="471" y="264" type="curve" smooth="yes"/>
      <point x="401" y="296" type="line" smooth="yes"/>
      <point x="365" y="312"/>
      <point x="351" y="329"/>
    </contour>
  </outline>
</glyph>
<glyph name="thorn" format="2">
  <advance width="577"/>
  <unicode hex="00FE"/>
  <outline>
    <contour>
      <point x="-34" y="-205" type="line"/>
      <point x="38" y="-205" type="line"/>
      <point x="95" y="64" type="line"/>
      <point x="136" y="17"/>
      <point x="196" y="-9"/>
      <point x="264" y="-9" type="curve" smooth="yes"/>
      <point x="416" y="-9"/>
      <point x="539" y="120"/>
      <point x="539" y="278" type="curve" smooth="yes"/>
      <point x="539" y="410"/>
      <point x="445" y="508"/>
      <point x="318" y="508" type="curve" smooth="yes"/>
      <point x="269" y="508"/>
      <point x="222" y="494"/>
      <point x="181" y="466" type="curve"/>
      <point x="234" y="717" type="line"/>
      <point x="159" y="700" type="line"/>
    </contour>
    <contour>
      <point x="303" y="443" type="curve" smooth="yes"/>
      <point x="399" y="443"/>
      <point x="468" y="372"/>
      <point x="468" y="272" type="curve" smooth="yes"/>
      <point x="468" y="153"/>
      <point x="377" y="57"/>
      <point x="262" y="57" type="curve" smooth="yes"/>
      <point x="196" y="57"/>
      <point x="138" y="89"/>
      <point x="111" y="138" type="curve"/>
      <point x="164" y="390" type="line"/>
      <point x="202" y="424"/>
      <point x="251" y="443"/>
    </contour>
  </outline>
</glyph>
<glyph name="eogonek" format="2">
  <advance width="552"/>
  <unicode hex="0119"/>
  <outline>
    <contour>
      <point x="359" y="0" type="curve"/>
      <point x="392" y="9"/>
      <point x="424" y="23"/>
      <point x="456" y="45" type="curve"/>
      <point x="418" y="96" type="line"/>
      <point x="381" y="70"/>
      <point x="332" y="55"/>
      <point x="283" y="55" type="curve" smooth="yes"/>
      <point x="185" y="55"/>
      <point x="112" y="128"/>
      <point x="110" y="228" type="curve"/>
      <point x="512" y="228" type="line"/>
      <point x="514" y="249"/>
      <point x="514" y="259"/>
      <point x="514" y="273" type="curve" smooth="yes"/>
      <point x="514" y="408"/>
      <point x="423" y="509"/>
      <point x="301" y="509" type="curve" smooth="yes"/>
      <point x="157" y="509"/>
      <point x="38" y="381"/>
      <point x="38" y="226" type="curve" smooth="yes"/>
      <point x="38" y="89"/>
      <point x="139" y="-9"/>
      <point x="280" y="-9" type="curve" smooth="yes"/>
      <point x="282" y="-9" type="line"/>
      <point x="211" y="-53"/>
      <point x="175" y="-99"/>
      <point x="175" y="-149" type="curve" smooth="yes"/>
      <point x="175" y="-193"/>
      <point x="210" y="-222"/>
      <point x="263" y="-222" type="curve" smooth="yes"/>
      <point x="286" y="-222"/>
      <point x="308" y="-216"/>
      <point x="329" y="-206" type="curve"/>
      <point x="324" y="-166" type="line"/>
      <point x="310" y="-173"/>
      <point x="293" y="-177"/>
      <point x="278" y="-177" type="curve" smooth="yes"/>
      <point x="248" y="-177"/>
      <point x="228" y="-160"/>
      <point x="228" y="-134" type="curve" smooth="yes"/>
      <point x="228" y="-88"/>
      <point x="269" y="-47"/>
    </contour>
    <contour>
      <point x="294" y="444" type="curve" smooth="yes"/>
      <point x="377" y="444"/>
      <point x="439" y="378"/>
      <point x="445" y="287" type="curve"/>
      <point x="117" y="287" type="line"/>
      <point x="138" y="377"/>
      <point x="210" y="444"/>
    </contour>
  </outline>
</glyph>
<glyph name="hcircumflex" format="2">
  <advance width="539"/>
  <unicode hex="0125"/>
  <outline>
    <contour>
      <point x="297" y="795" type="line"/>
      <point x="355" y="795" type="line"/>
      <point x="279" y="916" type="line"/>
      <point x="200" y="916" type="line"/>
      <point x="72" y="795" type="line"/>
      <point x="134" y="795" type="line"/>
      <point x="233" y="875" type="line"/>
    </contour>
    <contour>
      <point x="10" y="0" type="line"/>
      <point x="82" y="0" type="line"/>
      <point x="161" y="376" type="line"/>
      <point x="200" y="421"/>
      <point x="250" y="446"/>
      <point x="305" y="446" type="curve" smooth="yes"/>
      <point x="392" y="446"/>
      <point x="436" y="385"/>
      <point x="416" y="293" type="curve" smooth="yes"/>
      <point x="354" y="0" type="line"/>
      <point x="426" y="0" type="line"/>
      <point x="490" y="302" type="line" smooth="yes"/>
      <point x="515" y="422"/>
      <point x="447" y="510"/>
      <point x="329" y="510" type="curve" smooth="yes"/>
      <point x="272" y="510"/>
      <point x="221" y="490"/>
      <point x="177" y="451" type="curve"/>
      <point x="230" y="700" type="line"/>
      <point x="159" y="700" type="line"/>
    </contour>
  </outline>
</glyph>
<glyph name="lacute" format="2">
  <advance width="198"/>
  <unicode hex="013A"/>
  <outline>
    <contour>
      <point x="279" y="915" type="line"/>
      <point x="162" y="799" type="line"/>
      <point x="229" y="799" type="line"/>
      <point x="374" y="915" type="line"/>
    </contour>
    <contour>
      <point x="10" y="0" type="line"/>
      <point x="82" y="0" type="line"/>
      <point x="230" y="700" type="line"/>
      <point x="159" y="700" type="line"/>
    </contour>
  </outline>
</glyph>
<glyph name="Uogonek" format="2">
  <advance width="690"/>
  <unicode hex="0172"/>
  <outline>
    <contour>
      <point x="635" y="290" type="curve" smooth="yes"/>
      <point x="723" y="700" type="line"/>
      <point x="647" y="700" type="line"/>
      <point x="560" y="293" type="line" smooth="yes"/>
      <point x="529" y="147"/>
      <point x="440" y="60"/>
      <point x="321" y="60" type="curve" smooth="yes"/>
      <point x="189" y="60"/>
      <point x="117" y="159"/>
      <point x="147" y="299" type="curve" smooth="yes"/>
      <point x="233" y="700" type="line"/>
      <point x="157" y="700" type="line"/>
      <point x="73" y="303" type="line" smooth="yes"/>
      <point x="33" y="119"/>
      <point x="134" y="-11"/>
      <point x="318" y="-11" type="curve" smooth="yes"/>
      <point x="320" y="-11" type="line"/>
      <point x="252" y="-54"/>
      <point x="217" y="-100"/>
      <point x="217" y="-149" type="curve" smooth="yes"/>
      <point x="217" y="-193"/>
      <point x="252" y="-222"/>
      <point x="305" y="-222" type="curve" smooth="yes"/>
      <point x="328" y="-222"/>
      <point x="350" y="-216"/>
      <point x="371" y="-206" type="curve"/>
      <point x="366" y="-166" type="line"/>
      <point x="352" y="-173"/>
      <point x="335" y="-177"/>
      <point x="320" y="-177" type="curve" smooth="yes"/>
      <point x="290" y="-177"/>
      <point x="270" y="-160"/>
      <point x="270" y="-134" type="curve" smooth="yes"/>
      <point x="270" y="-88"/>
      <point x="310" y="-48"/>
      <point x="399" y="-1" type="curve"/>
      <point x="518" y="29"/>
      <point x="601" y="130"/>
    </contour>
  </outline>
</glyph>
<glyph name="circumflex" format="2">
  <advance width="509"/>
  <unicode hex="02C6"/>
  <anchor x="307" y="501" name="_top"/>
  <outline>
    <contour>
      <point x="411" y="596" type="line"/>
      <point x="469" y="596" type="line"/>
      <point x="393" y="717" type="line"/>
      <point x="314" y="717" type="line"/>
      <point x="186" y="596" type="line"/>
      <point x="248" y="596" type="line"/>
      <point x="347" y="676" type="line"/>
    </contour>
  </outline>
</glyph>
<glyph name="caron" format="2">
  <advance width="509"/>
  <unicode hex="02C7"/>
  <anchor x="307" y="501" name="_top"/>
  <outline>
    <contour>
      <point x="268" y="718" type="line"/>
      <point x="210" y="718" type="line"/>
      <point x="286" y="598" type="line"/>
      <point x="365" y="598" type="line"/>
      <point x="492" y="718" type="line"/>
      <point x="428" y="718" type="line"/>
      <point x="331" y="639" type="line"/>
    </contour>
  </outline>
</glyph>
<glyph name="breve" format="2">
  <advance width="509"/>
  <unicode hex="02D8"/>
  <anchor x="307" y="501" name="_top"/>
  <outline>
    <contour>
      <point x="338" y="640" type="curve" smooth="yes"/>
      <point x="284" y="640"/>
      <point x="253" y="671"/>
      <point x="252" y="729" type="curve"/>
      <point x="201" y="720" type="line"/>
      <point x="201" y="643"/>
      <point x="255" y="591"/>
      <point x="336" y="591" type="curve" smooth="yes"/>
      <point x="408" y="591"/>
      <point x="468" y="634"/>
      <point x="501" y="710" type="curve"/>
      <point x="451" y="726" type="line"/>
      <point x="425" y="670"/>
      <point x="386" y="640"/>
    </contour>
  </outline>
</glyph>
<glyph name="ring" format="2">
  <advance width="509"/>
  <unicode hex="02DA"/>
  <anchor x="307" y="501" name="_top"/>
  <outline>
    <contour>
      <point x="334" y="582" type="curve"/>
      <point x="398" y="582"/>
      <point x="454" y="640"/>
      <point x="454" y="706" type="curve" smooth="yes"/>
      <point x="454" y="764"/>
      <point x="413" y="804"/>
      <point x="355" y="804" type="curve"/>
      <point x="292" y="804"/>
      <point x="235" y="746"/>
      <point x="235" y="680" type="curve" smooth="yes"/>
      <point x="235" y="623"/>
      <point x="276" y="582"/>
    </contour>
    <contour>
      <point x="336" y="623" type="curve"/>
      <point x="303" y="623"/>
      <point x="278" y="649"/>
      <point x="278" y="683" type="curve" smooth="yes"/>
      <point x="278" y="727"/>
      <point x="313" y="763"/>
      <point x="353" y="763" type="curve"/>
      <point x="387" y="763"/>
      <point x="412" y="737"/>
      <point x="412" y="703" type="curve" smooth="yes"/>
      <point x="412" y="659"/>
      <point x="377" y="623"/>
    </contour>
  </outline>
</glyph>
<glyph name="ogonek" format="2">
  <advance width="509"/>
  <unicode hex="02DB"/>
  <anchor x="258" y="0" name="_bottom"/>
  <outline>
    <contour>
      <point x="258" y="0" type="curve"/>
      <point x="229" y="18" type="line"/>
      <point x="126" y="-34"/>
      <point x="74" y="-89"/>
      <point x="74" y="-149" type="curve" smooth="yes"/>
      <point x="74" y="-193"/>
      <point x="109" y="-222"/>
      <point x="162" y="-222" type="curve" smooth="yes"/>
      <point x="185" y="-222"/>
      <point x="207" y="-216"/>
      <point x="228" y="-206" type="curve"/>
      <point x="223" y="-166" type="line"/>
      <point x="209" y="-173"/>
      <point x="192" y="-177"/>
      <point x="177" y="-177" type="curve" smooth="yes"/>
      <point x="147" y="-177"/>
      <point x="127" y="-160"/>
      <point x="127" y="-134" type="curve" smooth="yes"/>
      <point x="127" y="-88"/>
      <point x="168" y="-47"/>
    </contour>
  </outline>
</glyph>
<glyph name="dagger" format="2">
  <advance width="417"/>
  <unicode hex="2020"/>
  <outline>
    <contour>
      <point x="123" y="0" type="line"/>
      <point x="187" y="0" type="line"/>
      <point x="281" y="442" type="line"/>
      <point x="405" y="442" type="line"/>
      <point x="418" y="502" type="line"/>
      <point x="294" y="502" type="line"/>
      <point x="336" y="700" type="line"/>
      <point x="272" y="700" type="line"/>
      <point x="230" y="502" type="line"/>
      <point x="106" y="502" type="line"/>
      <point x="94" y="442" type="line"/>
      <point x="217" y="442" type="line"/>
    </contour>
  </outline>
</glyph>
<glyph name="minus" format="2">
  <advance width="515"/>
  <unicode hex="2212"/>
  <outline>
    <contour>
      <point x="490" y="389" type="line"/>
      <point x="83" y="389" type="line"/>
      <point x="70" y="327" type="line"/>
      <point x="477" y="327" type="line"/>
    </contour>
  </outline>
</glyph>
<glyph name="notequal" format="2">
  <advance width="515"/>
  <unicode hex="2260"/>
  <outline>
    <contour>
      <point x="28" y="133" type="line"/>
      <point x="99" y="133" type="line"/>
      <point x="207" y="244" type="line"/>
      <point x="459" y="244" type="line"/>
      <point x="473" y="306" type="line"/>
      <point x="267" y="306" type="line"/>
      <point x="364" y="407" type="line"/>
      <point x="494" y="407" type="line"/>
      <point x="508" y="468" type="line"/>
      <point x="423" y="468" type="line"/>
      <point x="531" y="579" type="line"/>
      <point x="460" y="579" type="line"/>
      <point x="352" y="468" type="line"/>
      <point x="101" y="468" type="line"/>
      <point x="87" y="407" type="line"/>
      <point x="293" y="407" type="line"/>
      <point x="196" y="306" type="line"/>
      <point x="65" y="306" type="line"/>
      <point x="52" y="244" type="line"/>
      <point x="136" y="244" type="line"/>
    </contour>
  </outline>
</glyph>
<glyph name="caronSlovak" format="2">
  <advance width="456"/>
  <outline>
    <contour>
      <point x="293" y="714" type="line"/>
      <point x="244" y="508" type="line"/>
      <point x="301" y="508" type="line"/>
      <point x="370" y="714" type="line"/>
    </contour>
  </outline>
</glyph>
<glyph name="commaaccent" format="2">
  <advance width="224"/>
  <anchor x="53" y="0" name="_bottom"/>
  <outline>
    <contour>
      <point x="2" y="-85" type="line"/>
      <point x="-76" y="-264" type="line"/>
      <point x="-21" y="-264" type="line"/>
      <point x="77" y="-85" type="line"/>
    </contour>
  </outline>
</glyph>
<glyph name="reversequotedblleft" format="2">
  <advance width="329"/>
  <outline>
    <contour>
      <point x="164" y="719" type="line"/>
      <point x="85" y="719" type="line"/>
      <point x="153" y="508" type="line"/>
      <point x="211" y="508" type="line"/>
    </contour>
    <contour>
      <point x="298" y="719" type="line"/>
      <point x="219" y="719" type="line"/>
      <point x="287" y="508" type="line"/>
      <point x="345" y="508" type="line"/>
    </contour>
  </outline>
</glyph>
